<?xml version="1.0" standalone="no"?>
<!DOCTYPE svg PUBLIC "-//W3C//DTD SVG 20010904//EN"
 "http://www.w3.org/TR/2001/REC-SVG-20010904/DTD/svg10.dtd">
<svg version="1.0" xmlns="http://www.w3.org/2000/svg"
 width="225.000000pt" height="225.000000pt" viewBox="0 0 225.000000 225.000000"
 preserveAspectRatio="xMidYMid meet">

<g transform="translate(0.000000,225.000000) scale(0.100000,-0.100000)"
fill="#000000" stroke="none">
<path d="M613 2139 l-30 -81 -57 -23 -57 -23 -80 36 -80 36 -75 -75 -75 -75
37 -79 38 -78 -20 -56 -20 -56 -85 -31 -84 -32 0 -107 0 -108 87 -30 c86 -31
87 -32 107 -80 l21 -49 -40 -86 -41 -86 75 -75 75 -75 91 41 91 42 43 -20 c41
-18 44 -22 75 -109 l33 -90 107 0 108 0 32 90 c32 87 34 90 78 110 l45 20 48
-25 c55 -28 80 -32 80 -11 0 7 -28 26 -62 41 l-62 28 -52 -18 c-29 -10 -56
-20 -61 -24 -5 -3 -23 -44 -40 -91 l-30 -85 -84 0 -84 0 -28 79 c-15 44 -32
84 -37 90 -5 6 -34 20 -65 30 l-56 20 -80 -39 -80 -39 -59 59 -59 60 39 82 39
83 -26 57 c-15 32 -31 61 -37 65 -6 4 -40 17 -76 29 -36 12 -71 26 -77 32 -9
6 -13 37 -13 87 l0 78 79 27 c44 14 83 32 88 38 5 7 19 38 32 70 l23 58 -35
77 -35 77 41 48 c60 72 69 74 156 34 l74 -35 66 31 c36 17 69 35 73 41 5 6 18
41 30 79 l22 67 83 0 c80 0 84 -1 93 -25 18 -48 46 -25 29 24 l-11 31 -108 0
-108 0 -29 -81z"/>
<path d="M1831 2170 c-13 -37 -31 -45 -73 -31 -29 10 -34 9 -64 -20 -31 -30
-32 -34 -20 -63 17 -43 11 -60 -29 -75 -33 -12 -35 -15 -35 -57 0 -42 2 -46
35 -60 45 -18 51 -34 30 -74 -17 -32 -16 -33 16 -66 32 -33 32 -33 67 -18 45
19 58 14 76 -31 14 -33 18 -35 60 -35 42 0 45 2 56 36 15 44 28 49 73 31 34
-15 35 -15 67 18 31 32 31 33 16 63 -20 39 -12 59 30 77 31 13 34 17 34 58 0
40 -3 46 -30 57 -41 17 -52 39 -34 70 18 33 18 33 -14 70 -28 31 -30 32 -64
20 -45 -16 -66 -8 -79 30 -10 28 -15 30 -59 30 -44 0 -49 -2 -59 -30z m93 -25
c4 -14 20 -32 37 -41 26 -13 36 -14 61 -3 24 10 32 9 45 -3 12 -13 13 -20 3
-38 -7 -13 -9 -36 -5 -56 5 -27 13 -37 40 -49 45 -18 47 -49 5 -63 -40 -14
-57 -52 -43 -96 9 -27 8 -37 -5 -50 -13 -13 -19 -13 -43 0 -38 19 -77 4 -92
-36 -16 -42 -54 -42 -70 0 -15 41 -56 56 -95 36 -27 -14 -31 -14 -47 3 -15 17
-15 22 -2 48 13 24 13 32 1 54 -7 15 -27 32 -44 39 -42 17 -40 47 5 65 27 12
35 22 40 49 4 20 2 43 -5 56 -10 18 -9 25 4 38 13 13 20 13 42 4 37 -18 87 2
101 39 15 39 58 41 67 4z"/>
<path d="M1820 2028 c-19 -13 -40 -39 -49 -61 -29 -76 35 -167 119 -167 76 0
139 74 125 147 -16 88 -120 132 -195 81z m137 -40 c16 -15 23 -33 23 -58 0
-44 -20 -73 -60 -90 -56 -23 -120 22 -120 85 0 83 95 121 157 63z"/>
<path d="M868 2114 c-3 -3 -1 -21 5 -40 9 -31 20 -39 84 -69 l74 -34 75 37 74
36 59 -58 59 -58 -35 -76 -35 -76 24 -70 c24 -68 26 -70 74 -87 62 -22 74 -23
74 -4 0 8 -20 21 -48 31 -43 15 -49 22 -69 72 l-21 54 39 81 39 82 -74 74 -75
75 -80 -36 -80 -36 -57 23 c-44 18 -60 30 -70 54 -12 30 -24 38 -36 25z"/>
<path d="M614 1976 c-61 -19 -164 -77 -164 -92 0 -20 14 -17 73 16 96 54 222
73 326 49 172 -39 329 -205 348 -366 6 -57 28 -88 39 -59 9 24 -21 140 -52
204 -55 113 -172 207 -303 246 -65 19 -208 20 -267 2z"/>
<path d="M381 1826 c-24 -25 -32 -40 -27 -53 6 -16 13 -12 47 25 22 23 37 47
34 52 -10 16 -19 12 -54 -24z"/>
<path d="M802 1753 c-23 -21 -162 -366 -162 -404 0 -50 56 -68 85 -27 22 32
155 371 155 396 0 18 -33 52 -51 52 -4 0 -16 -8 -27 -17z m48 -32 c0 -18 -143
-366 -156 -380 -36 -39 -20 30 46 195 40 98 74 182 77 186 6 11 33 10 33 -1z"/>
<path d="M305 1711 c-25 -49 -45 -141 -45 -206 0 -207 136 -395 336 -466 124
-44 299 -23 413 50 62 40 78 58 64 72 -7 7 -25 0 -56 -24 -105 -80 -265 -108
-395 -68 -199 60 -326 229 -326 436 0 75 23 175 45 200 14 14 11 35 -6 35 -8
0 -21 -13 -30 -29z"/>
<path d="M477 1633 c-48 -25 -95 -56 -104 -69 -14 -22 -14 -26 0 -46 8 -13 58
-45 110 -72 93 -48 96 -49 121 -32 42 27 35 61 -19 94 -25 15 -45 30 -45 34 0
4 17 16 39 27 35 18 51 37 51 62 0 14 -38 49 -52 49 -7 -1 -53 -21 -101 -47z
m115 -8 c1 -5 -25 -24 -58 -42 -32 -17 -60 -36 -62 -42 -2 -5 24 -24 57 -40
66 -34 80 -48 57 -57 -19 -7 -186 82 -186 99 0 14 158 97 178 94 7 -1 14 -6
14 -12z"/>
<path d="M918 1669 c-22 -12 -24 -62 -4 -82 8 -8 28 -20 45 -27 36 -14 39 -26
12 -35 -67 -21 -96 -94 -47 -116 21 -10 38 -4 126 42 100 54 121 76 107 113
-6 14 -166 102 -202 111 -11 3 -28 0 -37 -6z m126 -72 c44 -23 81 -47 83 -53
4 -13 -157 -104 -182 -104 -33 0 -12 27 46 58 33 18 59 39 57 45 -2 7 -30 26
-61 42 -56 29 -74 55 -39 55 9 0 53 -19 96 -43z"/>
<path d="M1706 1574 c-40 -13 -61 -13 -111 -5 -216 38 -389 -37 -471 -205 -38
-78 -41 -185 -6 -254 13 -25 32 -78 42 -118 26 -97 64 -165 128 -228 l52 -52
0 -70 0 -70 -88 -4 c-72 -3 -99 -10 -155 -36 -86 -40 -164 -118 -209 -209 -30
-62 -33 -76 -37 -180 -3 -99 -1 -113 13 -113 13 0 16 14 16 85 0 197 106 349
281 405 73 24 89 21 89 -13 0 -72 96 -189 181 -221 57 -22 174 -19 174 4 0 11
-10 14 -43 12 -105 -8 -213 56 -258 153 -33 70 -32 87 7 83 26 -2 33 -9 44
-42 35 -101 150 -154 248 -112 44 18 95 78 103 121 6 32 9 35 40 35 29 0 34
-4 34 -22 0 -13 -9 -42 -19 -64 -12 -27 -16 -46 -10 -55 14 -21 37 14 56 84
l17 59 45 -7 c25 -4 65 -15 88 -25 43 -19 65 -12 44 14 -18 22 -92 40 -191 45
l-95 6 -1 60 -1 60 62 60 c97 94 149 212 166 380 6 55 19 121 30 147 10 26 19
67 19 92 0 61 -26 126 -51 126 -23 0 -24 -9 -5 -35 20 -30 29 -80 21 -126 -8
-46 -63 -115 -105 -131 -44 -18 -125 -9 -249 27 -156 45 -230 52 -303 31 -57
-16 -118 -69 -133 -115 -16 -53 -39 5 -37 96 1 107 96 230 211 274 86 34 317
31 282 -4 -15 -15 -14 -37 2 -37 8 0 22 10 33 21 23 26 74 49 109 49 20 0 26
4 23 17 -4 23 -23 25 -82 7z m-156 -360 c52 -15 117 -33 145 -40 68 -19 122
-17 173 6 l42 19 0 -47 c-1 -172 -116 -377 -242 -431 -88 -37 -195 -33 -281
11 -58 29 -125 101 -157 170 -126 265 10 397 320 312z m-103 -539 c72 -19 126
-19 186 -1 l47 14 0 -84 c0 -94 -12 -127 -59 -167 -62 -52 -145 -43 -206 22
-29 31 -30 37 -33 132 -2 54 -1 99 2 99 3 0 31 -7 63 -15z"/>
<path d="M1830 1561 c0 -10 65 -51 81 -51 21 0 7 31 -21 45 -32 17 -60 20 -60
6z"/>
<path d="M1767 1513 c-14 -14 -6 -22 28 -29 42 -7 95 -63 95 -99 0 -16 6 -25
15 -25 26 0 19 64 -12 101 -36 43 -107 72 -126 52z"/>
<path d="M1369 1495 c-53 -17 -126 -76 -115 -93 5 -9 17 -5 41 14 45 34 126
64 175 64 29 0 40 4 40 15 0 20 -77 19 -141 0z"/>
<path d="M1184 1315 c-15 -36 -11 -61 7 -49 8 4 39 69 39 80 0 2 -7 4 -16 4
-8 0 -22 -16 -30 -35z"/>
<path d="M369 763 c-16 -45 -35 -54 -76 -36 -35 14 -37 14 -66 -16 -30 -29
-30 -31 -17 -70 15 -46 6 -65 -35 -75 -26 -7 -38 -36 -31 -71 3 -11 5 -23 5
-27 1 -3 17 -12 36 -18 38 -13 42 -25 23 -78 -12 -32 -11 -35 19 -63 31 -27
34 -28 67 -14 44 19 61 12 73 -28 8 -30 12 -32 56 -35 46 -3 48 -2 62 32 19
46 27 49 72 31 37 -16 37 -15 67 14 28 29 29 33 18 64 -18 49 -16 55 28 77 36
19 40 24 40 60 0 36 -4 41 -40 60 -44 22 -46 28 -28 77 11 31 10 35 -18 64
-29 29 -31 29 -66 15 -41 -18 -61 -8 -77 37 -9 24 -16 27 -56 27 -40 0 -47 -3
-56 -27z m90 -33 c13 -39 54 -56 96 -41 42 16 62 -5 47 -48 -15 -43 1 -84 38
-98 41 -15 41 -51 1 -66 -41 -15 -55 -49 -39 -93 10 -29 10 -37 -4 -50 -14
-14 -18 -14 -46 0 -41 21 -77 5 -92 -40 -16 -47 -51 -47 -68 -1 -17 46 -53 62
-94 41 -27 -14 -32 -14 -45 -1 -13 12 -13 21 -4 50 15 46 -1 84 -40 92 -24 5
-29 12 -29 35 0 21 6 29 25 34 14 4 32 20 41 37 13 26 14 36 3 61 -17 41 4 63
46 47 42 -15 83 2 96 41 15 42 53 42 68 0z"/>
<path d="M375 630 c-40 -16 -68 -58 -73 -110 -4 -48 -3 -52 36 -90 34 -34 46
-40 82 -40 77 0 130 52 130 128 0 84 -96 145 -175 112z m118 -61 c15 -16 27
-39 27 -52 0 -38 -36 -84 -70 -92 -93 -20 -156 90 -87 152 45 41 87 39 130 -8z"/>
<path d="M2050 467 c0 -13 60 -77 73 -77 20 0 3 42 -26 64 -38 29 -47 32 -47
13z"/>
<path d="M1675 349 c-46 -35 -52 -44 -31 -52 18 -7 96 48 96 68 0 22 -20 17
-65 -16z"/>
<path d="M2146 352 c-3 -5 6 -35 19 -68 20 -51 31 -126 35 -241 0 -7 7 -13 16
-13 27 0 14 186 -17 264 -24 57 -41 77 -53 58z"/>
</g>
</svg>
