<svg width="335" height="304" viewBox="0 0 335 304" fill="none" xmlns="http://www.w3.org/2000/svg">
<path d="M120.751 46.8336C146.617 20.9681 188.553 20.9681 214.419 46.8336L272.336 104.751C298.202 130.617 298.202 172.553 272.336 198.418L214.419 256.336C188.553 282.201 146.617 282.201 120.751 256.336L62.8338 198.418C36.9684 172.553 36.9684 130.617 62.8339 104.751L120.751 46.8336Z" fill="#E0FBF3"/>
<path d="M324.074 185.752C316.908 178.54 306.157 178.09 296.751 178.09C288.688 178.09 279.282 178.09 273.011 183.95C265.844 189.809 265.844 199.725 265.396 208.289C264.948 218.205 263.605 228.122 261.365 238.038C256.438 260.575 247.927 281.309 235.833 301.142C235.385 302.043 236.729 302.946 237.177 302.044C247.927 285.367 255.989 267.787 260.917 248.855C264.948 234.882 267.188 220.459 268.084 206.036C268.532 197.471 269.427 188.457 277.938 183.95C284.657 180.344 295.855 180.794 303.47 180.794C313.324 180.794 322.73 183.499 326.762 193.415C331.241 203.331 332.137 226.769 332.585 237.587C332.585 258.772 329.898 279.507 324.97 300.241C324.522 302.945 326.314 303.847 326.762 301.593C331.689 283.112 334.377 263.731 334.825 244.349C334.825 229.925 334.824 196.119 324.522 186.203L324.074 185.752ZM234.489 147.438C231.354 146.086 227.77 145.185 224.187 144.734C221.052 144.734 216.572 145.185 216.124 149.242C216.124 150.143 214.78 149.692 214.78 149.242C214.78 144.734 219.26 142.481 223.291 142.481C227.77 142.481 232.697 143.382 235.833 146.537C236.729 147.439 235.833 148.34 234.489 147.889V147.438ZM248.375 151.946C254.198 149.241 261.365 151.044 259.573 163.214C257.781 174.934 254.646 188.005 249.271 189.808C243.896 192.062 236.729 189.358 233.593 180.343C237.177 179.892 238.072 174.483 237.177 171.779C236.729 169.976 235.385 169.074 233.593 169.074C231.801 169.074 230.458 169.525 229.562 170.878C227.77 168.624 226.427 165.92 226.427 162.765C217.468 161.412 205.374 157.355 211.645 143.833C218.364 130.311 245.24 142.03 247.927 151.496L248.375 151.946ZM189.697 234.433C171.332 234.433 152.967 234.883 134.602 235.334C109.07 235.334 83.5381 235.334 58.0063 235.785C34.2663 235.785 32.0269 228.122 28.8914 206.036C25.7559 182.146 23.5159 157.355 22.1721 133.465C21.2763 119.042 27.9956 119.042 40.0896 119.492C63.8296 119.492 87.5695 120.395 111.31 120.395C131.466 120.395 151.623 121.296 171.78 121.296C187.009 121.296 189.696 125.804 192.384 140.228C194.624 151.045 195.967 162.313 197.311 173.131C199.103 188.456 201.343 205.135 203.135 219.108C203.135 220.009 204.478 220.009 204.478 219.108C203.134 203.782 200.895 188.006 199.103 172.681C197.76 161.412 196.416 149.693 194.176 138.424C191.489 124.451 187.009 119.492 172.228 119.492C150.279 119.492 128.331 118.591 106.83 118.14C83.9859 118.14 61.1417 117.239 38.2975 117.239C25.7556 117.239 19.9326 119.493 20.8284 133.015C21.7243 156.454 24.8601 183.048 27.5477 206.036C30.6832 229.023 33.8188 237.137 58.4547 237.137C73.6842 237.137 88.9131 237.137 104.143 237.137C132.81 237.137 161.477 236.685 190.593 236.235C191.936 236.235 191.936 234.433 190.593 234.433H189.697ZM75.4754 191.16C75.4754 191.16 70.9964 192.062 68.7568 191.612C65.6213 191.612 64.7253 189.809 67.8607 189.358C70.1004 189.358 72.3404 189.358 74.58 189.358C75.9238 189.358 78.163 190.259 75.4754 191.16ZM66.0693 181.244C66.0693 181.244 70.1006 180.794 72.3403 180.794C75.9237 180.794 75.9237 183.048 72.3403 183.498C70.1006 183.498 67.861 183.498 66.0693 183.498C65.6214 183.498 65.1733 183.047 65.1733 182.596C65.1733 182.145 65.1735 181.695 66.0693 181.695V181.244ZM62.9335 201.077C60.246 201.077 58.0064 201.077 55.3189 201.077C54.871 201.077 54.4228 201.077 54.4228 200.176C54.4228 199.725 54.423 199.275 55.3189 199.275C58.0064 199.275 60.246 198.824 62.9335 199.275C66.069 199.275 66.5169 201.528 62.9335 201.528V201.077ZM50.8394 155.553C50.8394 155.553 55.319 154.65 57.5586 154.65C58.4545 154.65 60.2461 154.65 60.2461 156.002C60.2461 157.355 58.4547 157.355 57.111 157.355C55.3193 157.355 53.0794 157.355 51.2877 157.355C49.9439 157.355 49.4958 156.003 50.3917 155.553H50.8394ZM49.944 145.185C49.944 145.185 53.5272 145.185 55.3189 145.185C58.4544 145.185 58.0066 147.439 56.2149 147.889C53.9753 147.889 51.7353 147.889 49.4956 147.889C48.1519 147.889 48.1519 146.087 49.4956 145.636L49.944 145.185ZM63.8296 164.567C63.8296 164.567 67.8609 164.567 70.1005 164.567C72.3401 164.567 72.3401 167.271 70.1005 167.271C68.3088 167.271 66.5173 167.271 64.7256 167.271C60.6943 167.271 61.59 165.469 63.8296 165.018V164.567ZM70.9966 175.835C70.9966 175.835 68.3087 175.835 66.517 175.835C62.9336 175.835 62.4857 174.033 66.517 173.582C67.8608 173.582 69.6528 173.582 70.9966 173.582C74.132 173.582 74.58 175.836 70.9966 176.286V175.835ZM180.291 134.368C180.291 134.368 191.04 211.894 190.144 213.697C188.8 215.5 46.3604 215.952 44.1207 214.6C41.8811 212.797 34.2665 133.917 35.1624 132.564C36.5061 130.311 178.947 133.015 180.738 134.368H180.291ZM314.668 280.859C308.397 280.859 298.991 280.859 292.72 280.859C285.553 280.859 277.938 281.31 270.771 282.211C269.875 282.211 269.875 283.563 270.771 283.563C277.938 283.563 285.553 283.563 292.72 283.563C299.439 283.563 308.845 283.563 314.668 282.211C315.564 282.211 315.564 280.859 314.668 280.859ZM318.251 256.067C312.876 255.166 304.814 256.067 298.991 256.067C292.272 256.067 286.001 256.068 279.282 256.519C278.834 256.519 278.386 256.518 278.386 257.42C278.386 257.87 278.386 258.322 279.282 258.322C286.001 258.773 292.272 259.223 298.991 258.772C304.366 258.772 312.428 257.871 318.251 257.871C319.147 257.871 319.147 256.518 318.251 256.067ZM316.46 231.728C310.189 231.728 304.813 231.728 299.438 231.728C293.615 231.728 287.792 231.728 281.969 232.629C281.073 232.629 281.073 233.981 281.969 233.981C287.792 233.981 293.615 233.981 298.991 233.981C304.814 233.981 310.637 233.981 316.46 233.53C317.355 233.53 317.355 231.728 316.46 231.728ZM313.772 206.937C310.637 206.035 303.022 206.487 299.438 206.487C294.511 206.487 290.032 206.486 285.105 206.937C285.105 206.937 284.657 206.937 284.657 207.839C284.657 208.74 284.657 208.289 285.105 208.74C290.032 208.74 294.511 208.74 299.438 208.74C303.022 208.74 310.188 208.74 313.324 208.74C314.22 208.74 314.22 207.387 313.324 206.937H313.772ZM148.488 252.462C145.8 252.462 142.665 254.264 142.217 257.42C142.217 260.124 144.008 263.73 145.352 265.984C145.352 265.984 145.8 266.435 146.248 265.984C146.248 265.984 146.696 265.534 146.248 265.083C144.904 262.829 144.456 260.575 144.008 257.871C144.008 255.166 146.248 254.265 148.488 253.814C148.488 253.814 148.935 253.815 148.935 252.913C148.935 252.913 148.936 252.462 148.04 252.462H148.488ZM147.144 248.406C143.56 247.504 139.977 248.405 137.289 251.11C134.154 254.265 134.602 258.322 135.05 262.378C135.05 263.28 136.393 263.28 136.393 262.378C136.393 259.223 136.393 255.167 138.633 252.462C140.873 250.208 144.008 250.659 147.144 249.758C147.144 249.758 147.591 249.757 147.591 248.855C147.591 248.855 147.592 247.954 147.144 247.954V248.406ZM160.133 248.406C155.206 245.25 149.383 243.898 143.56 243.898C138.185 243.898 131.467 245.701 126.987 249.758C126.539 250.208 126.987 251.561 127.883 251.11C133.258 248.405 137.289 246.602 143.56 246.151C149.383 246.151 154.758 247.053 159.686 249.758H160.582V248.855L160.133 248.406ZM117.581 242.094C113.101 248.405 110.414 260.576 110.862 268.238C110.862 268.689 110.861 269.139 111.757 269.139C112.205 269.139 112.653 269.139 112.653 268.688C113.549 256.518 115.789 253.363 119.373 243.447C119.373 242.545 118.476 242.095 118.028 242.997L117.581 242.094ZM86.2259 241.645V240.742H85.3298C80.8506 247.503 70.9966 264.631 70.9966 272.745C70.9966 278.604 75.9238 280.407 80.851 281.309C81.2989 281.309 81.7463 281.31 81.7463 280.859C81.7463 280.408 81.7466 279.957 81.2987 279.957C77.2673 278.604 72.7877 277.253 73.2356 272.295C73.2356 264.182 83.0901 248.406 86.6735 241.645H86.2259ZM167.748 282.661C152.519 282.661 136.841 283.563 121.612 283.563C110.861 283.563 100.111 283.564 91.6008 275.45C90.7049 275 89.8095 275.45 90.7054 276.351C98.3201 284.916 110.862 285.367 121.164 285.367C137.289 285.367 153.415 284.915 169.54 284.464C173.123 284.464 174.915 282.211 171.78 279.507C169.54 277.253 166.852 275.45 163.717 274.098C158.342 270.943 152.071 270.04 145.8 270.04C129.227 270.491 112.205 270.492 95.6319 270.943C90.7047 270.943 87.1213 270.942 84.4338 275.9C83.09 278.154 82.6424 280.859 82.6424 283.563C82.6424 284.014 82.6421 284.464 83.0901 284.464C83.538 284.464 83.9861 284.464 83.9861 284.013C83.9861 281.76 84.8823 279.957 85.7782 277.704C88.0178 272.745 92.0491 273.196 96.9763 273.196C113.102 273.196 129.675 273.195 145.8 272.745C151.175 272.294 156.55 273.196 161.477 275.9C164.165 277.252 166.853 278.605 169.092 280.408C171.78 282.662 169.988 283.112 167.748 283.112V282.661ZM28.4431 261.026C28.4431 261.026 28.4431 257.421 28.4431 255.618C34.2661 255.618 42.7772 256.068 48.6003 255.618C48.6003 261.928 49.9436 272.295 49.4956 280.408C43.2247 282.211 36.5061 282.211 30.2351 281.76C29.3393 281.76 29.3393 283.112 30.2351 283.112C37.402 284.464 44.1205 284.465 50.8394 282.211C51.2873 282.211 51.7354 282.21 51.7354 281.309C51.7354 273.196 51.7354 265.533 50.3917 257.42C50.3917 253.814 50.3918 253.814 46.3605 253.814C40.9854 253.814 34.7147 253.814 29.7875 253.814C27.5478 253.814 26.6517 253.815 26.6517 255.618C26.6517 256.97 26.6517 258.772 26.6517 260.124C22.6203 255.617 15.4538 257.871 13.6621 263.731C11.4225 270.943 17.6933 278.154 23.9642 274.548C24.8601 274.548 23.964 273.196 23.0682 273.196C17.6931 275.45 13.6618 268.238 15.4535 263.731C18.1411 257.871 24.4123 260.576 26.204 262.378C26.204 268.238 26.2037 274.548 26.6517 280.408C26.6517 280.408 26.6519 280.859 27.5477 280.859C27.5477 280.859 27.9951 280.859 28.4431 280.408C28.4431 274.098 28.4431 267.337 28.4431 261.026ZM4.25538 302.494C15.9014 303.395 30.6833 302.494 42.3293 302.494C69.2049 302.043 96.0803 301.592 123.404 301.142C148.04 301.142 175.811 300.24 199.999 299.79C200.895 299.79 200.895 298.437 199.999 298.437C175.363 298.437 148.487 298.889 123.851 299.34C98.3197 299.34 72.7883 300.241 47.2565 300.692C34.2667 300.692 16.7973 301.593 4.25538 301.593C3.35952 301.593 3.35952 302.494 4.25538 302.945V302.494ZM200.447 288.972C188.353 288.972 173.123 288.972 161.477 288.972C122.508 289.423 83.538 289.874 44.5684 290.324C30.2348 290.324 14.5576 290.775 0.671889 291.225C-0.223963 291.225 -0.223963 292.577 0.671889 292.577C13.2138 293.028 27.0993 292.577 39.6412 292.577C78.6107 292.577 117.58 291.676 156.55 291.225C169.988 291.225 187.457 291.226 200.447 290.324C201.343 290.324 201.343 288.972 200.447 288.972ZM252.406 192.063C252.406 192.063 251.958 191.612 251.511 192.063C251.511 192.063 251.063 192.513 251.511 192.964C252.854 196.119 253.302 199.725 253.75 203.331C253.75 203.331 253.75 203.781 254.646 203.781C254.646 203.781 255.094 203.782 255.094 202.88C255.094 199.274 254.198 195.668 252.854 192.512L252.406 192.063ZM230.01 193.865C226.874 193.865 224.187 194.767 221.5 193.415C218.364 192.063 217.916 188.907 217.916 185.752C217.916 179.441 217.916 172.68 217.916 165.919C217.916 165.017 216.572 165.017 216.572 165.919C215.677 173.581 215.677 180.793 216.572 188.456C216.572 191.611 218.364 193.866 221.051 195.218C224.187 196.57 227.323 196.57 230.458 195.218C231.354 198.824 231.801 202.43 232.249 206.036C232.249 206.036 232.25 206.487 233.145 206.487C233.145 206.487 234.041 206.486 234.041 206.036C234.937 201.979 232.697 194.766 230.906 191.16C230.906 191.16 230.458 190.71 230.01 191.16C230.01 191.16 229.562 191.612 230.01 192.063C230.01 192.964 230.458 193.414 230.906 194.316L230.01 193.865ZM121.612 228.122C121.612 228.122 120.268 226.769 119.82 225.417C119.82 224.516 119.82 223.164 121.164 222.713C122.06 221.811 122.956 221.811 124.3 222.262C125.196 222.262 126.091 223.164 126.539 224.516C126.987 225.868 126.539 227.22 125.644 228.122C124.3 229.023 123.404 229.023 122.06 228.122H121.612ZM123.851 220.46C118.924 219.558 117.133 225.869 119.82 229.024C120.716 229.925 122.06 230.376 123.404 230.376C124.748 230.376 126.091 229.474 126.539 228.122C126.539 227.22 127.435 226.77 127.435 225.868C127.435 224.967 127.435 224.065 127.435 223.614C127.435 222.712 126.539 222.263 126.091 221.812C125.643 221.361 124.747 220.91 123.851 220.91V220.46Z" fill="#144C8B"/>
<path d="M311.98 112.281C311.98 112.281 309.741 110.478 308.845 110.028C307.501 109.126 305.71 108.675 304.366 108.224C303.918 108.224 303.47 108.224 303.47 108.224V109.127C304.814 109.577 306.158 110.478 307.502 111.38C308.397 111.83 309.293 112.731 310.189 113.633C308.397 115.436 305.262 117.69 303.47 119.493C301.679 121.296 302.127 123.55 304.814 121.296C306.158 120.395 311.085 115.887 311.98 114.985C312.876 113.633 313.324 113.183 311.98 111.831V112.281ZM299.439 105.07C297.199 108.225 295.408 111.379 293.616 114.985C292.272 117.239 289.137 123.099 288.689 125.353C288.689 126.254 290.032 126.704 290.48 126.254C291.824 124.451 294.511 118.592 295.855 116.339C297.647 113.183 299.438 109.577 300.782 106.422V105.52H299.887L299.439 105.07ZM284.209 108.224C280.626 109.576 277.49 111.38 274.802 114.084C273.459 114.986 273.907 115.437 274.802 116.339C277.042 119.043 279.282 120.845 281.969 122.648C284.657 124.451 286.001 122.648 283.762 120.845C281.522 119.042 278.834 117.239 277.042 115.436C279.73 113.633 282.865 112.282 285.553 110.479C288.24 109.127 287.792 107.323 284.657 108.224H284.209ZM332.138 127.607C329.002 138.425 314.22 140.227 305.262 130.761C307.949 149.693 274.355 146.087 277.491 132.114C267.188 142.03 255.99 127.155 267.636 120.845C256.438 120.845 255.094 110.929 257.333 104.168C259.573 96.505 271.667 89.2939 279.282 97.858C279.282 82.9835 298.543 79.3775 313.772 86.5894C327.658 93.3506 326.315 105.521 320.939 110.479C328.106 108.225 335.273 116.789 332.138 127.156V127.607ZM196.415 233.081C196.415 233.081 194.176 237.588 192.833 239.391C190.593 244.799 188.801 250.208 187.457 256.068C187.457 256.969 186.113 256.519 186.113 256.068C186.113 252.913 187.01 249.758 187.905 247.054C181.187 244.8 172.228 244.799 165.061 244.799C161.029 246.602 155.207 257.42 157.446 265.984C165.061 272.745 182.978 281.309 200.447 281.309C202.687 281.309 204.926 280.408 207.166 279.957C215.229 277.703 221.499 273.197 225.979 266.435C230.458 259.674 232.698 252.012 232.698 243.898C232.698 243.448 232.698 242.997 233.593 242.997C234.489 242.997 234.489 242.997 234.489 243.898C234.489 248.856 234.49 253.364 232.698 258.322C230.01 266.436 225.083 273.197 217.916 277.704C214.333 279.958 210.301 281.76 206.27 282.661C205.374 287.62 204.479 292.579 204.479 297.988C208.51 301.143 227.771 301.593 231.802 298.889C245.688 288.071 264.053 240.292 264.053 203.781C228.219 202.429 208.062 216.854 197.312 233.081H196.415ZM130.123 189.359C125.195 188.908 114.894 189.359 109.518 189.359C102.352 189.359 95.6327 189.359 88.4659 189.359C87.57 189.359 87.57 190.711 88.4659 190.711C95.1848 191.162 102.351 190.711 109.07 190.711C113.549 190.711 125.643 190.711 130.123 190.711C131.019 190.711 131.019 189.358 130.123 188.908V189.359ZM87.5698 183.048C96.9763 183.048 105.935 183.048 115.341 183.048C124.3 183.048 134.154 183.048 142.665 183.048C143.56 183.048 143.56 181.244 142.665 181.244C133.706 181.244 124.3 181.244 115.341 181.244C106.382 181.244 96.976 181.244 88.0175 181.244C87.1217 181.244 87.1217 182.597 88.0175 182.597L87.5698 183.048ZM170.436 199.275C165.061 198.824 156.551 199.275 150.728 199.275C144.905 199.275 136.841 199.275 131.466 199.275C130.571 199.275 131.018 200.627 131.466 200.627C136.841 201.529 145.8 201.528 151.175 201.528C156.55 201.528 165.061 201.077 170.436 201.077C171.332 201.077 171.332 199.725 170.436 199.725V199.275ZM121.612 199.275C115.789 198.374 104.591 199.275 98.768 199.275C91.1532 199.275 83.9864 199.275 76.3717 199.275C75.4758 199.275 75.4758 200.627 76.3717 200.627C83.9864 201.078 91.6009 200.626 99.2157 201.077C104.591 201.077 117.133 201.979 122.06 201.077C122.06 201.077 122.508 201.078 122.508 200.176C122.508 200.176 122.508 199.726 122.06 199.275H121.612ZM144.904 191.612C148.936 191.612 153.415 191.612 157.446 191.612C161.03 191.612 166.853 191.611 170.436 191.161C171.332 191.161 170.884 189.809 170.436 189.809C166.853 189.809 161.478 189.809 157.895 189.809C153.863 189.809 149.831 189.809 145.352 189.809C144.456 189.809 144.456 191.161 145.352 191.161L144.904 191.612ZM163.269 181.244C159.686 181.244 156.103 181.244 152.071 181.244C151.175 181.244 151.175 182.597 152.071 182.597C155.655 182.597 159.238 182.597 162.821 182.597C165.957 182.597 170.436 182.146 174.019 182.597C174.915 182.597 174.915 181.245 174.019 180.795C170.436 180.795 166.853 180.795 163.269 180.795V181.244ZM163.269 174.935C163.269 174.935 164.165 173.582 163.269 173.582C158.342 173.132 148.936 173.582 143.561 173.582C136.842 173.582 130.123 173.582 123.404 173.582C122.508 173.582 122.508 174.935 123.404 174.935C130.123 175.385 136.842 174.935 143.561 174.935C148.04 174.935 158.342 174.935 163.269 174.935ZM84.8824 174.935C89.3617 174.935 93.3927 174.935 97.8719 174.935C101.455 174.935 106.83 174.935 110.414 174.935C111.31 174.935 111.31 173.582 110.414 173.131C105.935 173.131 101.904 173.131 97.4243 173.131C93.3929 173.131 88.9137 173.131 84.8824 173.131C83.9865 173.131 83.9865 174.483 84.8824 174.483V174.935ZM164.613 165.469C164.613 165.469 165.509 164.117 164.613 164.117C162.821 163.667 146.696 164.117 144.904 164.117C144.008 164.117 144.008 165.469 144.904 165.469C150.279 165.469 158.342 165.469 164.165 165.469H164.613ZM82.6426 163.666C82.6426 163.666 81.7468 165.018 82.6426 165.018C91.6011 165.018 101.008 165.018 109.966 165.018C118.925 165.018 128.331 165.018 137.29 165.018C138.185 165.018 138.185 163.666 137.29 163.666C128.331 163.666 118.925 163.666 109.966 163.666C100.56 163.666 91.6014 163.666 82.1949 163.666H82.6426ZM139.081 155.102C139.081 155.102 138.186 155.101 138.186 156.003C138.186 156.904 138.185 156.905 139.081 156.905C144.456 156.905 149.384 156.905 154.759 156.905C159.686 156.905 165.061 156.905 169.988 156.454C170.884 156.454 170.436 155.102 169.988 155.102C165.061 155.102 159.238 155.102 154.759 155.102C149.832 155.102 144.457 155.102 139.529 155.553L139.081 155.102ZM115.789 156.454C120.269 156.454 125.196 156.454 129.675 156.454C130.571 156.454 130.571 154.651 129.675 154.651C125.196 154.651 119.82 154.651 115.341 154.651C110.862 154.651 105.935 154.651 101.455 154.651C100.56 154.651 100.56 156.003 101.455 156.003C105.935 156.003 110.862 156.003 115.789 156.003V156.454ZM92.497 156.454C92.497 156.454 93.3929 155.102 92.497 155.102C88.9136 155.102 85.3302 155.102 81.2989 155.102C77.7155 155.102 74.1318 155.102 70.5484 155.102C70.1005 155.102 69.6531 155.101 69.6531 156.003C69.6531 156.454 69.6526 156.905 70.5484 156.905C74.1318 156.905 77.7155 156.905 81.2989 156.905C83.9865 156.905 89.3616 156.905 92.497 156.905V156.454ZM123.852 146.538C131.914 146.988 148.488 146.538 157.895 146.538C158.79 146.538 158.79 145.185 157.895 145.185C147.592 144.735 134.602 145.185 123.852 145.185C122.956 145.185 122.956 146.538 123.852 146.538ZM91.601 146.538C99.6637 146.538 109.07 146.538 116.685 146.538C116.685 146.538 117.133 146.538 117.133 145.637C117.133 145.637 117.133 145.185 116.685 144.734C108.622 144.734 99.216 144.734 91.1533 144.734C82.6427 144.734 74.1323 144.734 66.0696 144.734C65.1737 144.734 65.1737 146.086 66.0696 146.086C74.5802 146.086 83.0904 146.086 91.601 146.086V146.538ZM279.282 150.144C277.938 153.3 275.699 155.102 272.563 155.553C269.428 156.004 266.74 155.553 264.5 152.849C263.605 151.496 263.604 150.594 263.604 149.242C263.604 147.89 264.5 146.988 265.844 146.086C268.084 144.283 270.772 143.834 273.907 144.284C275.699 144.284 277.042 145.185 277.938 146.086C278.834 147.439 279.282 148.791 279.282 150.594V150.144Z" fill="#A2EE00"/>
</svg>
